<?xml version="1.0" standalone="no"?>
<!DOCTYPE svg PUBLIC "-//W3C//DTD SVG 20010904//EN"
 "http://www.w3.org/TR/2001/REC-SVG-20010904/DTD/svg10.dtd">
<svg version="1.0" xmlns="http://www.w3.org/2000/svg"
 width="224.000000pt" height="224.000000pt" viewBox="0 0 224.000000 224.000000"
 preserveAspectRatio="xMidYMid meet">
<metadata>
Created by potrace 1.14, written by Peter Selinger 2001-2017
</metadata>
<g transform="translate(0.000000,224.000000) scale(0.100000,-0.100000)"
fill="#000000" stroke="none">
<path d="M1032 1549 c-12 -5 -22 -6 -22 -2 0 3 -6 0 -13 -6 -8 -6 -17 -8 -20
-4 -4 3 -7 2 -7 -4 0 -5 -18 -16 -39 -23 -22 -7 -42 -19 -45 -26 -3 -8 -11
-14 -18 -14 -20 0 -100 -91 -127 -143 -11 -21 -22 -27 -47 -27 -63 0 -145 -40
-201 -97 -30 -30 -61 -53 -73 -53 -31 0 -81 -23 -119 -56 -95 -80 -94 -249 2
-330 61 -51 79 -54 340 -55 553 0 1022 8 1052 20 55 21 78 36 94 61 8 14 23
32 33 41 10 9 15 19 11 23 -3 3 -1 6 5 6 7 0 12 9 12 19 0 11 5 23 10 26 26
16 5 179 -28 213 -7 8 -9 18 -6 24 4 7 2 8 -4 4 -7 -4 -12 -1 -12 8 0 9 -4 16
-10 16 -5 0 -20 11 -33 24 -33 33 -144 67 -174 53 -21 -9 -81 -2 -70 10 12 11
-52 119 -100 169 -47 51 -96 81 -177 111 -46 17 -180 24 -214 12z"/>
</g>
</svg>
